<svg width="406" height="406" fill="none" xmlns="http://www.w3.org/2000/svg"><g clip-path="url(#a)"><path d="M145.257 172.379c26.414 11.101 60.015-8.701 74.913-44.15 14.897-35.446 5.533-73.316-20.881-84.417-26.407-11.097-60.014 8.712-74.911 44.159-14.898 35.448-5.528 73.31 20.879 84.408Zm115.791 122.238c-.42-1.751-.831-3.409-.879-4.706-1.075-27.426-19.075-66.792-66.355-87.453l-1.826-.78c-46.833-19.682-86.729-6.332-108.46 12.733-.747.651-2.08 1.342-3.49 2.073-1.665.851-3.33 1.738-4.885 2.809-16.288 11.182-28.56 26.322-34.542 42.631-6.361 17.311-4.984 33.941 3.847 46.809 3.569 5.195 8.18 8.995 13.715 11.321 11.413 4.797 24.565 2.76 39.803.404 9.694-1.51 19.704-3.063 30.077-3.015 1.128.089 5.394 1.296 12.028 4.084 7.889 3.316 13.26 6.399 14.295 7.325 7.023 7.431 12.498 15.607 17.796 23.505 8.119 12.12 15.786 23.56 27.29 28.394 4.936 2.075 10.269 2.783 15.861 2.115 30.853-3.682 51.912-40.51 46.95-82.087-.249-2.086-.728-4.138-1.225-6.162Zm-13.942-79.434c26.402 11.096 60.009-8.704 74.907-44.153 14.896-35.446 5.528-73.318-20.874-84.413-26.417-11.103-60.022 8.708-74.919 44.155-14.898 35.448-5.531 73.309 20.886 84.411Zm92.533.051c-21.17-8.897-46.965 6.095-58.744 34.123-11.774 28.015-4.424 56.94 16.736 65.833 21.158 8.892 46.975-6.094 58.749-34.109 11.779-28.028 4.428-56.951-16.741-65.847Zm-238.467-41.409c11.779-28.027 4.428-56.95-16.733-65.844-21.161-8.893-46.97 6.094-58.748 34.122-11.774 28.015-4.421 56.941 16.74 65.835 21.161 8.893 46.967-6.097 58.741-34.113Z" fill="#F4A201"/></g><defs><clipPath id="a"><path fill="#fff" d="M0 0h406v406H0z"/></clipPath></defs></svg>